<svg height="464pt" viewBox="-18 0 464 464.48031" width="464pt" xmlns="http://www.w3.org/2000/svg"><path d="m418.257812 181.976562c1.539063 4.339844 1.128907 9.132813-1.128906 13.144532-2.257812 4.015625-6.140625 6.855468-10.648437 7.789062-31.332031 5.929688-63.714844 2.617188-93.199219-9.535156-31.632812-12.921875-58.402344-35.460938-76.527344-64.429688l27.144532-16.953124c28.886718 45.890624 82.855468 69.503906 136.167968 59.574218 7.804688-1.539062 15.554688 2.894532 18.191406 10.402344zm0 0" fill="#7d4739"/><path d="m26.417969 235.976562c18.257812-72.808593 83.65625-123.902343 158.71875-124v32c-60.394531.078126-113.003907 41.191407-127.679688 99.777344-1.738281 7.152344-8.132812 12.199219-15.496093 12.222656-4.945313-.015624-9.609376-2.308593-12.644532-6.210937-3.035156-3.90625-4.105468-8.992187-2.898437-13.789063zm0 0" fill="#ce893d"/><path d="m179.394531 288h-16l-4.5625-.078125.082031-2.640625c-2.371093-8.816406-3.554687-17.910156-3.519531-27.042969v-2.238281h24c90.265625.105469 163.414063 73.253906 163.519531 163.519531.023438 10.855469-1.046874 21.683594-3.199218 32.320313-1.519532 7.394531-8.050782 12.6875-15.601563 12.640625-1.660156.007812-3.308593-.261719-4.878906-.800781-7.835937-2.492188-12.503906-10.515626-10.800781-18.558594 1.667968-8.433594 2.5-17.007813 2.480468-25.601563-.101562-67.636719-51.414062-124.203125-118.722656-130.878906-4.238281-.402344-8.476562-.640625-12.796875-.640625zm0 0" fill="#168fba"/><path d="m192.191406 288.640625-2.316406 15.359375c-8.921875 75.960938-69.164062 135.675781-145.203125 143.921875-4.476563.378906-8.910156-1.152344-12.199219-4.214844-3.292968-3.0625-5.136718-7.371093-5.078125-11.867187v-.398438c.074219-7.96875 6.148438-14.59375 14.078125-15.363281 32.101563-3.496094 61.800782-18.671875 83.441406-42.636719 21.300782-23.453125 33.355469-53.84375 33.917969-85.519531l4.5625.078125h16c4.320313 0 8.558594.238281 12.796875.640625zm0 0" fill="#005e9c"/><path d="m153.136719 255.992188h80l32-144h-88zm0 0" fill="#ce893d"/><path d="m253.953125 31.601562c-1.585937.253907-3.191406.386719-4.800781.398438h-48v-5.359375c-.003906-14.714844 11.925781-26.64453125 26.640625-26.640625h53.359375c.019531 15.820312-11.554688 29.265625-27.199219 31.601562zm0 0" fill="#ad2943"/><path d="m253.953125 31.601562c-.238281.957032-.480469 1.917969-.800781 2.878907l-7.597656 45.519531h-44.402344v-48h48c1.609375-.011719 3.214844-.144531 4.800781-.398438zm0 0" fill="#eecfb1"/><path d="m420.753906 167.441406h-24l-9-49.496094h40.246094zm0 0" fill="#ce893d"/><g fill="#d8d8d3"><path d="m381.59375 99.015625-8-16c-1.125-2.25-1.125-4.898437 0-7.152344l8-16 14.320312 7.152344-6.21875 12.425781 6.21875 12.421875zm0 0"/><path d="m413.59375 99.015625-8-16c-1.125-2.25-1.125-4.898437 0-7.152344l8-16 14.320312 7.152344-6.21875 12.425781 6.21875 12.421875zm0 0"/><path d="m33.058594 143.4375 99.6875 51.054688-32.816406 64.082031-99.691407-51.050781zm0 0"/></g></svg>